<svg xmlns="http://www.w3.org/2000/svg" version="1.1" xmlns:xlink="http://www.w3.org/1999/xlink" xmlns:svgjs="http://svgjs.com/svgjs" width="100%" height="100%"><svg width="100%" height="100%" viewBox="0 0 932 932" version="1.1" xmlns="http://www.w3.org/2000/svg" xmlns:xlink="http://www.w3.org/1999/xlink" xml:space="preserve" xmlns:serif="http://www.serif.com/" style="fill-rule:evenodd;clip-rule:evenodd;stroke-linejoin:round;stroke-miterlimit:2;">
    <g transform="matrix(1,0,0,1,-99.9799,-1462)">
        <g transform="matrix(0.369044,0,0,1.0728,0,-99.7891)">
            <g id="SvgjsG1000" transform="matrix(2.70971,0,0,0.932141,0,1366.32)">
                <path d="M1031.98,878.996L1031.98,994.839C1031.98,1013.14 1017.12,1028 998.819,1028L133.141,1028C114.839,1028 99.98,1013.14 99.98,994.839L99.98,129.161C99.98,110.859 114.839,96 133.141,96L998.819,96C1017.12,96 1031.98,110.859 1031.98,129.161L1031.98,245.006L656.008,245.006L656.008,283.002L1031.98,283.002L1031.98,394L824.748,394C816.382,362.609 787.733,339.453 753.719,339.453C719.704,339.453 691.056,362.609 682.69,394L550.955,394L550.955,431.996L682.714,431.996C691.11,463.342 719.737,486.453 753.719,486.453C787.701,486.453 816.327,463.342 824.724,431.996L1031.98,431.996L1031.98,543.002L445.997,543.002L445.997,580.998L510.263,580.998C495.398,594.454 486.055,613.895 486.055,635.5C486.055,658.201 496.369,678.511 512.564,692L341.023,692L341.023,729.996L1031.98,729.996L1031.98,841L938.707,841C930.38,809.553 901.704,786.342 867.649,786.342C833.594,786.342 804.917,809.553 796.591,841L257,841L257,878.996L796.674,878.996C805.109,910.286 833.707,933.342 867.649,933.342C901.59,933.342 930.189,910.286 938.624,878.996L1031.98,878.996ZM1031.98,692L606.547,692C622.742,678.511 633.055,658.201 633.055,635.5C633.055,613.895 623.713,594.454 608.848,580.998L1031.98,580.998L1031.98,692Z" style="fill:rgb(1,43,58);"></path>
            </g>
        </g>
    </g>
</svg><style>@media (prefers-color-scheme: light) { :root { filter: none; } }
@media (prefers-color-scheme: dark) { :root { filter: contrast(1) brightness(1); } }
</style></svg>